<?xml version="1.0" standalone="no"?>
<!DOCTYPE svg PUBLIC "-//W3C//DTD SVG 20010904//EN"
 "http://www.w3.org/TR/2001/REC-SVG-20010904/DTD/svg10.dtd">
<svg version="1.0" xmlns="http://www.w3.org/2000/svg"
 width="231.000000pt" height="231.000000pt" viewBox="0 0 231.000000 231.000000"
 preserveAspectRatio="xMidYMid meet">
<metadata>
Created by potrace 1.11, written by Peter Selinger 2001-2013
</metadata>
<g transform="translate(0.000000,231.000000) scale(0.100000,-0.100000)"
fill="#000000" stroke="none">
<path d="M1068 2287 c-24 -12 -144 -80 -266 -152 -122 -71 -268 -157 -325
-190 -194 -112 -236 -154 -276 -273 -21 -60 -21 -77 -19 -530 3 -428 4 -470
21 -495 38 -58 97 -19 74 48 -7 20 -11 185 -11 475 l0 445 25 55 c15 30 41 70
60 88 26 25 573 352 779 464 25 14 31 23 28 44 -5 40 -36 47 -90 21z"/>
<path d="M1273 2299 c-29 -29 -9 -62 52 -88 45 -18 585 -334 585 -342 0 -12
-249 -279 -261 -279 -4 0 -93 50 -199 111 -145 85 -200 112 -228 113 -30 0
-70 -19 -207 -98 -94 -55 -203 -118 -242 -140 -75 -42 -94 -66 -73 -91 26 -31
67 -14 290 116 l225 130 35 -16 c19 -9 87 -48 150 -85 180 -107 226 -130 256
-130 22 0 58 30 185 157 87 86 163 169 168 184 7 20 5 35 -7 60 -14 27 -67 62
-297 196 -154 90 -298 173 -319 183 -53 27 -98 34 -113 19z"/>
<path d="M1133 2055 c-54 -23 -602 -346 -635 -373 -16 -14 -42 -44 -56 -66
l-27 -41 0 -405 c0 -451 -1 -444 71 -514 42 -40 610 -371 638 -371 21 0 48 39
40 59 -3 6 -75 52 -161 101 -86 50 -176 101 -199 115 -24 14 -85 49 -136 78
-183 106 -174 77 -173 533 1 403 1 403 67 452 18 13 163 100 322 192 346 201
332 198 474 115 87 -50 90 -52 95 -93 11 -81 92 -121 167 -82 53 27 72 92 44
150 -26 56 -87 79 -147 56 -20 -8 -35 -3 -83 26 -137 83 -222 103 -301 68z"/>
<path d="M652 1370 c-4 -11 -7 -130 -7 -265 1 -230 2 -246 21 -272 12 -16 126
-91 265 -173 292 -173 288 -172 412 -97 43 26 83 47 88 47 5 0 9 5 9 10 0 6 4
10 9 10 5 0 55 27 111 60 56 33 107 60 113 59 16 -1 99 -98 92 -108 -2 -5
-115 -73 -250 -152 -146 -85 -247 -151 -251 -162 -7 -23 22 -57 45 -52 9 2
130 69 267 149 323 188 323 188 191 322 -66 66 -89 84 -112 84 -18 0 -99 -42
-225 -115 -108 -63 -203 -115 -211 -115 -8 0 -120 62 -249 138 l-235 138 -3
243 c-1 160 -6 249 -13 258 -17 20 -58 16 -67 -7z"/>
<path d="M1963 574 c-40 -20 -64 -56 -66 -98 -2 -32 -9 -37 -287 -199 -157
-91 -295 -168 -307 -171 -89 -27 -160 -11 -288 63 -243 140 -592 346 -617 362
-32 23 -61 24 -78 4 -28 -34 8 -73 135 -141 11 -5 144 -83 295 -171 334 -195
345 -200 412 -210 108 -17 186 8 367 115 361 215 414 243 442 233 15 -5 36 -8
46 -6 10 2 23 4 29 4 6 1 25 15 43 31 60 58 34 167 -47 190 -46 12 -41 13 -79
-6z"/>
</g>
</svg>
