<?xml version="1.0" encoding="UTF-8"?>
<svg width="24px" height="24px" viewBox="0 0 24 24" version="1.1" xmlns="http://www.w3.org/2000/svg" xmlns:xlink="http://www.w3.org/1999/xlink">
    <title>email-24px</title>
    <g id="Celena" stroke="none" stroke-width="1" fill="none" fill-rule="evenodd">
        <g id="Celena-Contact-Page" transform="translate(-250.000000, -471.000000)">
            <g id="Content" transform="translate(250.000000, 130.000000)">
                <g id="line" transform="translate(0.000000, 340.000000)">
                    <g id="email-24px" transform="translate(0.000000, 1.000000)">
                        <polygon id="Path" points="0 0 24 0 24 24 0 24"></polygon>
                        <path d="M21.99,8 C21.99,7.28 21.62,6.65 21.05,6.3 L12,1 L2.95,6.3 C2.38,6.65 2,7.28 2,8 L2,18 C2,19.1 2.9,20 4,20 L20,20 C21.1,20 22,19.1 22,18 L21.99,8 Z M12,13 L3.74,7.84 L12,3 L20.26,7.84 L12,13 Z" id="Shape" fill="#E7EDF1" fill-rule="nonzero"></path>
                    </g>
                </g>
            </g>
        </g>
    </g>
</svg>