<?xml version="1.0" encoding="UTF-8"?>
<svg width="24px" height="24px" viewBox="0 0 24 24" version="1.1" xmlns="http://www.w3.org/2000/svg" xmlns:xlink="http://www.w3.org/1999/xlink">
    <title>location-24px</title>
    <g id="Celena" stroke="none" stroke-width="1" fill="none" fill-rule="evenodd">
        <g id="Celena-Contact-Page" transform="translate(-250.000000, -348.000000)">
            <g id="Content" transform="translate(250.000000, 130.000000)">
                <g id="line" transform="translate(0.000000, 217.000000)">
                    <g id="location-24px" transform="translate(0.000000, 1.000000)">
                        <polygon id="Path" points="0 0 24 0 24 24 0 24"></polygon>
                        <path d="M12,2 C8.13,2 5,5.13 5,9 C5,14.25 12,22 12,22 C12,22 19,14.25 19,9 C19,5.13 15.87,2 12,2 Z M12,11.5 C10.62,11.5 9.5,10.38 9.5,9 C9.5,7.62 10.62,6.5 12,6.5 C13.38,6.5 14.5,7.62 14.5,9 C14.5,10.38 13.38,11.5 12,11.5 Z" id="Shape" fill="#E7EDF1" fill-rule="nonzero"></path>
                    </g>
                </g>
            </g>
        </g>
    </g>
</svg>